# xmcd
#
# Track frame offsets:
#	150
#	13167
#	25497
#	44685
#	58237
#	80877
#	104790
#	133420
#	157442
#	168622
#	185527
#	197540
#	209095
#	223187
#	239047
#
# Disc length: 3372 seconds
#
# Revision: 1
# Processed by: cddbd v1.5.2PL0 Copyright (c) Steve Scherf et al.
# Submitted via: audiograbber 1.83.01
#
DISCID=050d2a0f
DTITLE=Blues  - Blues Série Gold cd1
DYEAR=1998
DGENRE=blues
TTITLE0=Elmore James - Dust My Broom
TTITLE1=Jimmy Reed - Honest J Do
TTITLE2=Howlin' Wolf - Shake It For Me
TTITLE3=Buddy Guy and Junior Wells - Blue Monday
TTITLE4=Muddy Watters - Hoochie Coochie Man
TTITLE5=Big Jie Turner - Shake Rattle and Roll
TTITLE6=Percy Mayfield and Pee Wee Crayton - Everyday J Have The Blues
TTITLE7=Wilbert Harrison - It's Work Toogether
TTITLE8=Johnny Lee Hooker - Boom Boom
TTITLE9=Bo Diddley - Mona It Need You Baby
TTITLE10=Robert Johnson - Cross Road Blues
TTITLE11=Ray Charles - Ray Charles Blues
TTITLE12=Eruc Clapton and Jimmy Page - Choker
TTITLE13=Muddy Watters - Got My Mojo Working
TTITLE14=BB King - The Letter
EXTD=
EXTT0=
EXTT1=
EXTT2=
EXTT3=
EXTT4=
EXTT5=
EXTT6=
EXTT7=
EXTT8=
EXTT9=
EXTT10=
EXTT11=
EXTT12=
EXTT13=
EXTT14=
PLAYORDER=
